<svg id="svg" version="1.1" xmlns="http://www.w3.org/2000/svg" width="400" height="400"
    viewBox="0, 0, 400,400">
    <g id="svgg">
        <path id="path0"
            d="M102.200 92.845 C 76.832 96.531,59.736 109.866,53.539 130.800 C 47.076 152.635,53.769 178.430,69.487 192.268 C 79.180 200.801,85.497 203.799,109.200 211.114 C 111.290 211.759,114.890 212.870,117.200 213.584 C 130.745 217.770,134.851 219.818,140.200 225.060 C 154.681 239.250,153.619 266.969,138.187 277.607 C 123.335 287.845,96.305 287.157,82.721 276.196 C 75.788 270.602,71.204 261.093,71.201 252.300 L 71.200 250.800 58.424 250.800 C 51.397 250.800,45.567 250.935,45.469 251.100 C 44.199 253.239,48.647 273.317,51.207 277.000 C 51.360 277.220,52.067 278.480,52.778 279.800 C 59.900 293.017,75.557 303.340,93.200 306.450 C 110.360 309.475,129.718 308.063,141.122 302.955 C 162.996 293.156,174.075 278.323,176.077 256.152 C 178.262 231.955,167.205 209.483,147.403 197.880 C 140.954 194.101,135.737 192.078,118.800 186.792 C 107.182 183.166,100.073 180.707,97.200 179.321 C 72.325 167.317,69.497 130.610,92.600 119.613 C 96.462 117.775,98.346 117.214,104.720 116.003 C 110.418 114.920,120.467 115.728,127.600 117.842 C 137.943 120.908,147.600 133.304,147.600 143.515 C 147.600 144.160,147.714 145.523,147.854 146.544 L 148.109 148.400 160.854 148.400 L 173.600 148.400 173.600 145.665 C 173.600 121.315,156.181 100.379,130.800 94.224 C 124.109 92.602,108.918 91.869,102.200 92.845 M211.600 95.727 C 211.600 95.870,214.653 107.874,216.400 114.600 C 217.029 117.020,218.531 122.870,219.739 127.600 C 220.947 132.330,222.589 138.720,223.389 141.800 C 224.188 144.880,225.633 150.460,226.599 154.200 C 227.566 157.940,228.924 163.160,229.618 165.800 C 230.312 168.440,231.026 171.230,231.206 172.000 C 231.386 172.770,232.103 175.560,232.800 178.200 C 233.497 180.840,234.217 183.630,234.400 184.400 C 234.583 185.170,235.303 187.960,236.000 190.600 C 236.697 193.240,237.414 196.030,237.593 196.800 C 237.961 198.374,240.895 209.751,246.209 230.200 C 247.009 233.280,248.472 238.950,249.460 242.800 C 250.449 246.650,251.799 251.870,252.462 254.400 C 253.124 256.930,253.810 259.630,253.986 260.400 C 254.161 261.170,255.407 266.030,256.755 271.200 C 258.103 276.370,260.541 285.820,262.173 292.200 C 263.805 298.580,265.263 304.115,265.413 304.500 C 265.835 305.582,300.559 305.582,301.000 304.500 C 301.285 303.802,301.498 303.008,304.135 292.800 C 304.902 289.830,306.279 284.520,307.195 281.000 C 308.110 277.480,309.763 271.090,310.868 266.800 C 313.976 254.728,315.154 250.168,316.393 245.400 C 317.022 242.980,318.352 237.850,319.347 234.000 C 323.542 217.783,325.642 209.661,327.983 200.600 C 330.162 192.169,331.540 186.888,332.839 182.000 C 333.044 181.230,333.377 179.880,333.580 179.000 C 333.783 178.120,334.152 176.680,334.401 175.800 C 334.650 174.920,335.004 173.570,335.189 172.800 C 335.374 172.030,336.157 168.970,336.929 166.000 C 337.701 163.030,339.257 157.000,340.388 152.600 C 341.518 148.200,342.964 142.620,343.599 140.200 C 344.235 137.780,345.409 133.280,346.207 130.200 C 347.005 127.120,348.112 122.890,348.667 120.800 C 349.222 118.710,349.847 116.280,350.056 115.400 C 350.780 112.355,351.380 110.023,354.170 99.400 C 354.517 98.080,354.874 96.685,354.963 96.300 C 355.115 95.644,354.298 95.600,342.055 95.600 L 328.984 95.600 323.847 116.500 C 321.022 127.995,318.618 137.670,318.505 138.000 C 318.392 138.330,318.154 139.230,317.976 140.000 C 317.799 140.770,317.459 142.120,317.221 143.000 C 316.983 143.880,316.624 145.320,316.424 146.200 C 315.826 148.825,314.056 155.987,313.212 159.200 C 312.778 160.850,310.523 169.940,308.200 179.400 C 304.034 196.368,303.669 197.842,302.852 201.000 C 302.624 201.880,302.052 204.220,301.579 206.200 C 301.107 208.180,300.560 210.340,300.364 211.000 C 299.684 213.285,292.034 244.623,290.796 250.200 C 288.903 258.719,287.372 266.256,286.000 273.800 C 285.780 275.010,285.409 277.035,285.176 278.300 C 284.944 279.565,284.650 281.275,284.524 282.100 C 284.192 284.270,283.777 283.949,283.228 281.100 C 282.963 279.725,282.593 277.880,282.406 277.000 C 282.218 276.120,281.870 274.410,281.631 273.200 C 277.697 253.246,278.200 255.340,256.179 167.300 L 238.245 95.600 224.923 95.600 C 217.595 95.600,211.600 95.657,211.600 95.727 "
            stroke="none" fill="#fcfbfa" fill-rule="evenodd"></path>
        <path id="path1"
            d="M30.400 0.291 C 29.630 0.382,28.829 0.624,28.620 0.829 C 28.411 1.033,27.837 1.200,27.344 1.200 C 26.851 1.200,26.336 1.380,26.200 1.600 C 26.064 1.820,25.513 2.000,24.976 2.000 C 24.439 2.000,24.000 2.180,24.000 2.400 C 24.000 2.620,23.640 2.800,23.200 2.800 C 22.760 2.800,22.400 2.980,22.400 3.200 C 22.400 3.420,22.040 3.600,21.600 3.600 C 21.160 3.600,20.800 3.780,20.800 4.000 C 20.800 4.220,20.440 4.400,20.000 4.400 C 19.560 4.400,19.200 4.580,19.200 4.800 C 19.200 5.020,18.912 5.200,18.560 5.200 C 18.209 5.200,17.417 5.740,16.800 6.400 C 16.183 7.060,15.476 7.600,15.229 7.600 C 14.244 7.600,7.600 14.244,7.600 15.229 C 7.600 15.476,7.060 16.183,6.400 16.800 C 5.740 17.417,5.200 18.209,5.200 18.560 C 5.200 18.912,5.020 19.200,4.800 19.200 C 4.580 19.200,4.400 19.560,4.400 20.000 C 4.400 20.440,4.220 20.800,4.000 20.800 C 3.780 20.800,3.600 21.160,3.600 21.600 C 3.600 22.040,3.420 22.400,3.200 22.400 C 2.980 22.400,2.800 22.760,2.800 23.200 C 2.800 23.640,2.620 24.000,2.400 24.000 C 2.180 24.000,2.000 24.439,2.000 24.976 C 2.000 25.513,1.820 26.064,1.600 26.200 C 1.380 26.336,1.200 26.962,1.200 27.590 C 1.200 28.219,0.975 28.808,0.700 28.900 C -0.036 29.145,-0.036 370.524,0.700 371.260 C 0.975 371.535,1.200 372.163,1.200 372.656 C 1.200 373.149,1.380 373.664,1.600 373.800 C 1.820 373.936,2.000 374.487,2.000 375.024 C 2.000 375.561,2.180 376.000,2.400 376.000 C 2.620 376.000,2.800 376.360,2.800 376.800 C 2.800 377.240,2.980 377.600,3.200 377.600 C 3.420 377.600,3.600 377.960,3.600 378.400 C 3.600 378.840,3.780 379.200,4.000 379.200 C 4.220 379.200,4.400 379.560,4.400 380.000 C 4.400 380.440,4.580 380.800,4.800 380.800 C 5.020 380.800,5.200 381.088,5.200 381.440 C 5.200 381.791,5.740 382.583,6.400 383.200 C 7.060 383.817,7.600 384.524,7.600 384.771 C 7.600 385.756,14.244 392.400,15.229 392.400 C 15.476 392.400,16.183 392.940,16.800 393.600 C 17.417 394.260,18.209 394.800,18.560 394.800 C 18.912 394.800,19.200 394.980,19.200 395.200 C 19.200 395.420,19.560 395.600,20.000 395.600 C 20.440 395.600,20.800 395.780,20.800 396.000 C 20.800 396.220,21.160 396.400,21.600 396.400 C 22.040 396.400,22.400 396.580,22.400 396.800 C 22.400 397.020,22.760 397.200,23.200 397.200 C 23.640 397.200,24.000 397.380,24.000 397.600 C 24.000 397.820,24.439 398.000,24.976 398.000 C 25.513 398.000,26.064 398.180,26.200 398.400 C 26.336 398.620,26.962 398.800,27.590 398.800 C 28.219 398.800,28.808 399.025,28.900 399.300 C 29.145 400.036,370.524 400.036,371.260 399.300 C 371.535 399.025,372.163 398.800,372.656 398.800 C 373.149 398.800,373.664 398.620,373.800 398.400 C 373.936 398.180,374.487 398.000,375.024 398.000 C 375.561 398.000,376.000 397.820,376.000 397.600 C 376.000 397.380,376.360 397.200,376.800 397.200 C 377.240 397.200,377.600 397.020,377.600 396.800 C 377.600 396.580,377.960 396.400,378.400 396.400 C 378.840 396.400,379.200 396.220,379.200 396.000 C 379.200 395.780,379.560 395.600,380.000 395.600 C 380.440 395.600,380.800 395.420,380.800 395.200 C 380.800 394.980,381.088 394.800,381.440 394.800 C 381.791 394.800,382.583 394.260,383.200 393.600 C 383.817 392.940,384.524 392.400,384.771 392.400 C 385.192 392.400,387.036 390.887,388.962 388.962 C 390.887 387.036,392.400 385.192,392.400 384.771 C 392.400 384.524,392.940 383.817,393.600 383.200 C 394.260 382.583,394.800 381.791,394.800 381.440 C 394.800 381.088,394.980 380.800,395.200 380.800 C 395.420 380.800,395.600 380.440,395.600 380.000 C 395.600 379.560,395.780 379.200,396.000 379.200 C 396.220 379.200,396.400 378.840,396.400 378.400 C 396.400 377.960,396.580 377.600,396.800 377.600 C 397.020 377.600,397.200 377.240,397.200 376.800 C 397.200 376.360,397.380 376.000,397.600 376.000 C 397.820 376.000,398.000 375.561,398.000 375.024 C 398.000 374.487,398.180 373.936,398.400 373.800 C 398.620 373.664,398.800 373.149,398.800 372.656 C 398.800 372.163,399.025 371.535,399.300 371.260 C 399.698 370.862,399.800 336.057,399.800 199.913 C 399.800 63.592,399.699 29.033,399.300 28.900 C 399.025 28.808,398.800 28.219,398.800 27.590 C 398.800 26.962,398.620 26.336,398.400 26.200 C 398.180 26.064,398.000 25.513,398.000 24.976 C 398.000 24.439,397.820 24.000,397.600 24.000 C 397.380 24.000,397.200 23.640,397.200 23.200 C 397.200 22.760,397.020 22.400,396.800 22.400 C 396.580 22.400,396.400 22.040,396.400 21.600 C 396.400 21.160,396.220 20.800,396.000 20.800 C 395.780 20.800,395.600 20.440,395.600 20.000 C 395.600 19.560,395.420 19.200,395.200 19.200 C 394.980 19.200,394.800 18.912,394.800 18.560 C 394.800 18.209,394.260 17.417,393.600 16.800 C 392.940 16.183,392.400 15.476,392.400 15.229 C 392.400 14.244,385.756 7.600,384.771 7.600 C 384.524 7.600,383.817 7.060,383.200 6.400 C 382.583 5.740,381.791 5.200,381.440 5.200 C 381.088 5.200,380.800 5.020,380.800 4.800 C 380.800 4.580,380.440 4.400,380.000 4.400 C 379.560 4.400,379.200 4.220,379.200 4.000 C 379.200 3.780,378.840 3.600,378.400 3.600 C 377.960 3.600,377.600 3.420,377.600 3.200 C 377.600 2.980,377.240 2.800,376.800 2.800 C 376.360 2.800,376.000 2.620,376.000 2.400 C 376.000 2.180,375.561 2.000,375.024 2.000 C 374.487 2.000,373.936 1.820,373.800 1.600 C 373.664 1.380,373.149 1.200,372.656 1.200 C 372.163 1.200,371.535 0.975,371.260 0.700 C 370.782 0.222,34.383 -0.182,30.400 0.291 M123.400 93.000 C 152.682 96.622,173.600 118.567,173.600 145.665 L 173.600 148.400 160.854 148.400 L 148.109 148.400 147.854 146.544 C 147.714 145.523,147.600 144.160,147.600 143.515 C 147.600 133.304,137.943 120.908,127.600 117.842 C 120.467 115.728,110.418 114.920,104.720 116.003 C 99.672 116.962,98.374 117.292,95.400 118.371 C 69.771 127.672,70.922 166.640,97.200 179.321 C 100.073 180.707,107.182 183.166,118.800 186.792 C 135.737 192.078,140.954 194.101,147.403 197.880 C 167.205 209.483,178.262 231.955,176.077 256.152 C 174.075 278.323,162.996 293.156,141.122 302.955 C 129.718 308.063,110.360 309.475,93.200 306.450 C 75.557 303.340,59.900 293.017,52.778 279.800 C 52.067 278.480,51.360 277.220,51.207 277.000 C 48.647 273.317,44.199 253.239,45.469 251.100 C 45.567 250.935,51.397 250.800,58.424 250.800 L 71.200 250.800 71.201 252.300 C 71.204 261.093,75.788 270.602,82.721 276.196 C 96.305 287.157,123.335 287.845,138.187 277.607 C 153.619 266.969,154.681 239.250,140.200 225.060 C 134.851 219.818,130.745 217.770,117.200 213.584 C 114.890 212.870,111.290 211.759,109.200 211.114 C 85.497 203.799,79.180 200.801,69.487 192.268 C 53.769 178.430,47.076 152.635,53.539 130.800 C 59.736 109.866,76.832 96.531,102.200 92.845 C 106.167 92.269,118.199 92.357,123.400 93.000 M256.179 167.300 C 274.659 241.180,276.827 249.996,278.784 259.200 C 279.822 264.086,280.220 266.043,281.631 273.200 C 281.870 274.410,282.218 276.120,282.406 277.000 C 282.593 277.880,282.963 279.725,283.228 281.100 C 283.777 283.949,284.192 284.270,284.524 282.100 C 284.650 281.275,284.944 279.565,285.176 278.300 C 285.409 277.035,285.780 275.010,286.000 273.800 C 287.372 266.256,288.903 258.719,290.796 250.200 C 292.034 244.623,299.684 213.285,300.364 211.000 C 300.560 210.340,301.107 208.180,301.579 206.200 C 302.052 204.220,302.624 201.880,302.852 201.000 C 303.669 197.842,304.034 196.368,308.200 179.400 C 310.523 169.940,312.778 160.850,313.212 159.200 C 314.056 155.987,315.826 148.825,316.424 146.200 C 316.624 145.320,316.983 143.880,317.221 143.000 C 317.459 142.120,317.799 140.770,317.976 140.000 C 318.154 139.230,318.392 138.330,318.505 138.000 C 318.618 137.670,321.022 127.995,323.847 116.500 L 328.984 95.600 342.055 95.600 C 354.298 95.600,355.115 95.644,354.963 96.300 C 354.874 96.685,354.517 98.080,354.170 99.400 C 351.380 110.023,350.780 112.355,350.056 115.400 C 349.847 116.280,349.222 118.710,348.667 120.800 C 348.112 122.890,347.005 127.120,346.207 130.200 C 345.409 133.280,344.235 137.780,343.599 140.200 C 342.964 142.620,341.518 148.200,340.388 152.600 C 339.257 157.000,337.701 163.030,336.929 166.000 C 336.157 168.970,335.374 172.030,335.189 172.800 C 335.004 173.570,334.650 174.920,334.401 175.800 C 334.152 176.680,333.783 178.120,333.580 179.000 C 333.377 179.880,333.044 181.230,332.839 182.000 C 331.540 186.888,330.162 192.169,327.983 200.600 C 325.642 209.661,323.542 217.783,319.347 234.000 C 318.352 237.850,317.022 242.980,316.393 245.400 C 315.154 250.168,313.976 254.728,310.868 266.800 C 309.763 271.090,308.110 277.480,307.195 281.000 C 306.279 284.520,304.902 289.830,304.135 292.800 C 301.498 303.008,301.285 303.802,301.000 304.500 C 300.559 305.582,265.835 305.582,265.413 304.500 C 265.263 304.115,263.805 298.580,262.173 292.200 C 260.541 285.820,258.103 276.370,256.755 271.200 C 255.407 266.030,254.161 261.170,253.986 260.400 C 253.810 259.630,253.124 256.930,252.462 254.400 C 251.799 251.870,250.449 246.650,249.460 242.800 C 248.472 238.950,247.009 233.280,246.209 230.200 C 240.895 209.751,237.961 198.374,237.593 196.800 C 237.414 196.030,236.697 193.240,236.000 190.600 C 235.303 187.960,234.583 185.170,234.400 184.400 C 234.217 183.630,233.497 180.840,232.800 178.200 C 232.103 175.560,231.386 172.770,231.206 172.000 C 231.026 171.230,230.312 168.440,229.618 165.800 C 228.924 163.160,227.566 157.940,226.599 154.200 C 225.633 150.460,224.188 144.880,223.389 141.800 C 222.589 138.720,220.947 132.330,219.739 127.600 C 218.531 122.870,217.029 117.020,216.400 114.600 C 214.653 107.874,211.600 95.870,211.600 95.727 C 211.600 95.657,217.595 95.600,224.923 95.600 L 238.245 95.600 256.179 167.300 "
            stroke="none" fill="#fc7404" fill-rule="evenodd"></path>
    </g>
</svg>
